<svg id="图层_1" data-name="图层 1" xmlns="http://www.w3.org/2000/svg" viewBox="0 0 400.85 150"><defs><style>.cls-1{fill:#12449a;}.cls-2{fill:#ea9f17;}.cls-3{fill:#fff;}</style></defs><title>福音網導航上用LOGO</title><g id="_编组_" data-name="&lt;编组&gt;"><polygon id="_路径_" data-name="&lt;路径&gt;" class="cls-1" points="221.68 12.8 208.52 12.8 208.52 0 200.47 0 200.47 12.83 187.37 12.8 187.37 20.64 200.47 20.64 200.47 50.84 208.52 50.84 208.52 20.64 221.68 20.64 221.68 12.8"/></g><g id="_编组_2" data-name="&lt;编组&gt;"><g id="_编组_3" data-name="&lt;编组&gt;"><path id="_路径_2" data-name="&lt;路径&gt;" class="cls-2" d="M239.65,10s.31-.32-5.46-4a35.23,35.23,0,0,0-6.48-3.37,56,56,0,0,1,6.7,3.92,36.44,36.44,0,0,1,5.67,4.58Z"/><path id="_路径_3" data-name="&lt;路径&gt;" class="cls-2" d="M233.6,10.05A50.29,50.29,0,0,0,227,5.86a41.48,41.48,0,0,0-6.22-2.72A50.26,50.26,0,0,1,226,5.57a53.67,53.67,0,0,1,7.25,4.74Z"/><path id="_路径_4" data-name="&lt;路径&gt;" class="cls-2" d="M235,16.74a20.34,20.34,0,0,0-3.4-3,66.94,66.94,0,0,0-11.17-7.19,39,39,0,0,1,8.11,4.57c4.31,3,5.85,4.35,5.85,4.35Z"/><g id="_编组_4" data-name="&lt;编组&gt;"><path id="_路径_5" data-name="&lt;路径&gt;" class="cls-2" d="M241.49,80.78a6,6,0,0,0-3.34.87A7,7,0,0,0,236,83.87s.33.72,2.42.5a6.18,6.18,0,0,0,3.69-1.67c1.08-.76,1.76-2.16,1.59-2.3S242.64,80.78,241.49,80.78Z"/><path id="_路径_6" data-name="&lt;路径&gt;" class="cls-2" d="M237.68,77.62c-.14-1.14.27-2.11.11-2.27s-1.47.69-2.1,1.86a6.12,6.12,0,0,0-1.2,3.86c0,2.1.79,2.34.79,2.34A7,7,0,0,0,237.22,81,5.93,5.93,0,0,0,237.68,77.62Z"/><path id="_路径_7" data-name="&lt;路径&gt;" class="cls-2" d="M245.35,75.86a5.91,5.91,0,0,0-3.23,1.19,7.11,7.11,0,0,0-1.9,2.42s.4.69,2.46.26a6.2,6.2,0,0,0,3.51-2c1-.87,1.54-2.33,1.35-2.45S246.5,75.75,245.35,75.86Z"/><path id="_路径_8" data-name="&lt;路径&gt;" class="cls-2" d="M241.15,70.82c-.18-.14-1.4.83-1.91,2.05a6.12,6.12,0,0,0-.82,4c.22,2.09,1,2.25,1,2.25a6.92,6.92,0,0,0,1.7-2.55,5.92,5.92,0,0,0,.13-3.44C241,72,241.32,71,241.15,70.82Z"/><path id="_路径_9" data-name="&lt;路径&gt;" class="cls-2" d="M248.76,70.68A5.88,5.88,0,0,0,245.59,72a7,7,0,0,0-1.8,2.49s.43.67,2.47.16a6.15,6.15,0,0,0,3.41-2.16c1-.91,1.45-2.39,1.26-2.51S249.9,70.52,248.76,70.68Z"/><path id="_路径_10" data-name="&lt;路径&gt;" class="cls-2" d="M243.31,73.88a6.94,6.94,0,0,0,1.25-2.8,5.87,5.87,0,0,0-.44-3.41c-.44-1.07-.3-2.11-.49-2.22s-1.24,1-1.54,2.34a6.09,6.09,0,0,0-.15,4C242.51,73.85,243.31,73.88,243.31,73.88Z"/><path id="_路径_11" data-name="&lt;路径&gt;" class="cls-2" d="M253.31,63.39c-.2-.09-.93.67-2,1a5.88,5.88,0,0,0-3,1.78,6.84,6.84,0,0,0-1.4,2.72s.52.61,2.45-.2a6.11,6.11,0,0,0,3.07-2.64C253.26,65,253.52,63.48,253.31,63.39Z"/><path id="_路径_12" data-name="&lt;路径&gt;" class="cls-2" d="M246.34,68.64a7.07,7.07,0,0,0,1-2.9,6,6,0,0,0-.75-3.36c-.53-1-.49-2.08-.69-2.17s-1.14,1.16-1.32,2.47a6,6,0,0,0,.21,4C245.54,68.68,246.34,68.64,246.34,68.64Z"/><path id="_路径_13" data-name="&lt;路径&gt;" class="cls-2" d="M255.14,56.6c-.21-.05-.83.8-1.87,1.28a5.91,5.91,0,0,0-2.67,2.18,7,7,0,0,0-1,2.9s.6.53,2.41-.55a6.2,6.2,0,0,0,2.66-3C255.32,58.22,255.36,56.66,255.14,56.6Z"/><path id="_路径_14" data-name="&lt;路径&gt;" class="cls-2" d="M249,62.81a7,7,0,0,0,.52-3,5.92,5.92,0,0,0-1.27-3.2c-.69-.93-.81-2-1-2s-.94,1.33-.91,2.65a6.16,6.16,0,0,0,.85,3.95C248.2,63,249,62.81,249,62.81Z"/><path id="_路径_15" data-name="&lt;路径&gt;" class="cls-2" d="M255.89,50.09c-.22,0-.71.9-1.69,1.51a5.9,5.9,0,0,0-2.35,2.52,6.83,6.83,0,0,0-.61,3s.66.44,2.31-.86a6.19,6.19,0,0,0,2.23-3.38C256.29,51.66,256.11,50.11,255.89,50.09Z"/><path id="_路径_16" data-name="&lt;路径&gt;" class="cls-2" d="M250.61,57.06a7,7,0,0,0,.12-3.07,5.88,5.88,0,0,0-1.7-3c-.8-.82-1.06-1.85-1.28-1.87s-.76,1.44-.55,2.74a6.1,6.1,0,0,0,1.37,3.81C249.86,57.33,250.61,57.06,250.61,57.06Z"/><path id="_路径_17" data-name="&lt;路径&gt;" class="cls-2" d="M254.13,44.91a5.89,5.89,0,0,0-1.95,2.83,7.09,7.09,0,0,0-.16,3.07s.73.34,2.16-1.2a6.14,6.14,0,0,0,1.7-3.67c.32-1.28-.08-2.79-.3-2.78S255,44.16,254.13,44.91Z"/><path id="_路径_18" data-name="&lt;路径&gt;" class="cls-2" d="M251.4,50.84a7,7,0,0,0-.35-3.05,5.82,5.82,0,0,0-2.12-2.71c-.92-.7-1.33-1.67-1.55-1.66s-.53,1.53-.13,2.79a6.07,6.07,0,0,0,1.92,3.56C250.69,51.22,251.4,50.84,251.4,50.84Z"/><path id="_路径_19" data-name="&lt;路径&gt;" class="cls-2" d="M251.65,41.5a6.94,6.94,0,0,0,.14,3.06s.75.27,2-1.4a6.21,6.21,0,0,0,1.34-3.82c.19-1.3-.35-2.76-.57-2.74s-.48,1-1.27,1.89A5.84,5.84,0,0,0,251.65,41.5Z"/><path id="_路径_20" data-name="&lt;路径&gt;" class="cls-2" d="M248.16,39.15c-1-.6-1.48-1.53-1.71-1.5s-.38,1.58.14,2.8a6.14,6.14,0,0,0,2.26,3.35c1.65,1.3,2.32.85,2.32.85a7.08,7.08,0,0,0-.64-3A5.94,5.94,0,0,0,248.16,39.15Z"/><path id="_路径_21" data-name="&lt;路径&gt;" class="cls-2" d="M251,37.7s.79.11,1.71-1.78a6.13,6.13,0,0,0,.56-4c-.07-1.32-.89-2.64-1.1-2.57s-.26,1.12-.88,2.09a6,6,0,0,0-1,3.29A6.91,6.91,0,0,0,251,37.7Z"/><path id="_路径_22" data-name="&lt;路径&gt;" class="cls-2" d="M246.38,33.11c-1.08-.4-1.76-1.2-2-1.13s-.06,1.62.69,2.71A6.13,6.13,0,0,0,248,37.53c1.88.94,2.44.38,2.44.38a7.06,7.06,0,0,0-1.22-2.82A5.89,5.89,0,0,0,246.38,33.11Z"/><path id="_路径_23" data-name="&lt;路径&gt;" class="cls-2" d="M249.11,31.53s.79,0,1.49-2a6.13,6.13,0,0,0,.1-4.05c-.21-1.3-1.18-2.52-1.39-2.43s-.12,1.15-.62,2.18a5.88,5.88,0,0,0-.66,3.39A6.89,6.89,0,0,0,249.11,31.53Z"/><path id="_路径_24" data-name="&lt;路径&gt;" class="cls-2" d="M244,27.5c-1.11-.27-1.88-1-2.08-.9s.13,1.62,1,2.62a6.16,6.16,0,0,0,3.19,2.49c2,.72,2.46.09,2.46.09A7,7,0,0,0,247,29.14,6,6,0,0,0,244,27.5Z"/><path id="_路径_25" data-name="&lt;路径&gt;" class="cls-2" d="M246.52,25.78s.8-.07,1.26-2.12a6.16,6.16,0,0,0-.36-4c-.37-1.27-1.47-2.37-1.66-2.25s0,1.15-.37,2.24a5.86,5.86,0,0,0-.27,3.43A7,7,0,0,0,246.52,25.78Z"/><path id="_路径_26" data-name="&lt;路径&gt;" class="cls-2" d="M246,26.12a7.06,7.06,0,0,0-1.82-2.47,5.93,5.93,0,0,0-3.2-1.28c-1.14-.14-2-.77-2.17-.66s.31,1.6,1.28,2.49a6.17,6.17,0,0,0,3.45,2.11C245.58,26.8,246,26.12,246,26.12Z"/><path id="_路径_27" data-name="&lt;路径&gt;" class="cls-2" d="M241.79,14.74a5.92,5.92,0,0,0,.41,3.42,7.08,7.08,0,0,0,1.91,2.4s.77-.22.82-2.32a6.1,6.1,0,0,0-1.14-3.88c-.61-1.18-1.91-2-2.07-1.89S242,13.6,241.79,14.74Z"/><path id="_路径_28" data-name="&lt;路径&gt;" class="cls-2" d="M238,18.3c-1.15.08-2.1-.37-2.26-.22s.62,1.5,1.75,2.19a6.18,6.18,0,0,0,3.79,1.4c2.1.08,2.38-.67,2.38-.67a7,7,0,0,0-2.28-2.06A5.91,5.91,0,0,0,238,18.3Z"/><path id="_路径_29" data-name="&lt;路径&gt;" class="cls-2" d="M238.22,11a5.5,5.5,0,0,0,.42,3.22,6.67,6.67,0,0,0,1.82,2.26s.73-.22.76-2.21a5.72,5.72,0,0,0-1.12-3.65c-.58-1.11-1.82-1.91-2-1.77S238.36,9.93,238.22,11Z"/><path id="_路径_30" data-name="&lt;路径&gt;" class="cls-2" d="M240,16.9A6.6,6.6,0,0,0,237.87,15a5.51,5.51,0,0,0-3.2-.57c-1.09.09-2-.33-2.14-.19s.6,1.42,1.67,2a5.81,5.81,0,0,0,3.6,1.29C239.79,17.62,240,16.9,240,16.9Z"/><path id="_路径_31" data-name="&lt;路径&gt;" class="cls-2" d="M236.09,14a2.94,2.94,0,0,0,1.32.19c.5-.11.5-.58-.18-2.32s-3.14-2.06-3.58-2.21c-1-.32-1.68-.85-1.45-.23a9.26,9.26,0,0,0,1.32,2.82A4.13,4.13,0,0,0,236.09,14Z"/></g></g><g id="_编组_5" data-name="&lt;编组&gt;"><path id="_路径_32" data-name="&lt;路径&gt;" class="cls-2" d="M170.12,10s-.3-.32,5.54-3.88a35,35,0,0,1,6.53-3.25,55.31,55.31,0,0,0-6.77,3.8,36.89,36.89,0,0,0-5.75,4.48Z"/><path id="_路径_33" data-name="&lt;路径&gt;" class="cls-2" d="M176.17,10.13a49.91,49.91,0,0,1,6.67-4.07,41,41,0,0,1,6.26-2.61,51.85,51.85,0,0,0-5.27,2.33,54.52,54.52,0,0,0-7.33,4.61Z"/><path id="_路径_34" data-name="&lt;路径&gt;" class="cls-2" d="M174.68,16.8a20,20,0,0,1,3.45-3,67.17,67.17,0,0,1,11.29-7,39,39,0,0,0-8.19,4.43c-4.36,3-5.93,4.25-5.93,4.25Z"/><g id="_编组_6" data-name="&lt;编组&gt;"><path id="_路径_35" data-name="&lt;路径&gt;" class="cls-2" d="M170.37,81.64a6,6,0,0,0-3.32-.93c-1.15,0-2.06-.56-2.23-.42s.48,1.56,1.55,2.34A6.1,6.1,0,0,0,170,84.35c2.08.27,2.42-.46,2.42-.46A7,7,0,0,0,170.37,81.64Z"/><path id="_路径_36" data-name="&lt;路径&gt;" class="cls-2" d="M170.84,75.35c-.16.15.23,1.13.07,2.27a5.91,5.91,0,0,0,.4,3.42,7,7,0,0,0,1.9,2.41s.77-.23.83-2.33a6.18,6.18,0,0,0-1.13-3.88C172.3,76.07,171,75.2,170.84,75.35Z"/><path id="_路径_37" data-name="&lt;路径&gt;" class="cls-2" d="M168.34,79.42A7,7,0,0,0,166.48,77a5.93,5.93,0,0,0-3.21-1.25c-1.14-.13-2-.75-2.18-.63s.33,1.59,1.32,2.47a6.06,6.06,0,0,0,3.47,2.07C167.93,80.11,168.34,79.42,168.34,79.42Z"/><path id="_路径_38" data-name="&lt;路径&gt;" class="cls-2" d="M169.14,79.05s.78-.15,1.05-2.23a6.15,6.15,0,0,0-.76-4c-.48-1.23-1.69-2.22-1.86-2.09s.11,1.15-.16,2.27a5.87,5.87,0,0,0,.07,3.44A6.94,6.94,0,0,0,169.14,79.05Z"/><path id="_路径_39" data-name="&lt;路径&gt;" class="cls-2" d="M164.85,74.39a7,7,0,0,0-1.74-2.52A5.92,5.92,0,0,0,160,70.49c-1.13-.18-2-.84-2.15-.73s.26,1.61,1.21,2.53a6.17,6.17,0,0,0,3.38,2.22C164.42,75.06,164.85,74.39,164.85,74.39Z"/><path id="_路径_40" data-name="&lt;路径&gt;" class="cls-2" d="M165.35,73.79s.8,0,1.41-2a6.16,6.16,0,0,0-.08-4c-.28-1.3-1.3-2.47-1.5-2.37s-.08,1.15-.53,2.21a5.91,5.91,0,0,0-.51,3.4A7,7,0,0,0,165.35,73.79Z"/><path id="_路径_41" data-name="&lt;路径&gt;" class="cls-2" d="M161.83,68.73A7,7,0,0,0,160.47,66a6,6,0,0,0-2.92-1.83c-1.1-.34-1.81-1.11-2-1s0,1.63.83,2.68a6.12,6.12,0,0,0,3,2.69C161.3,69.33,161.83,68.73,161.83,68.73Z"/><path id="_路径_42" data-name="&lt;路径&gt;" class="cls-2" d="M162.41,68.49s.8.06,1.59-1.89a6.19,6.19,0,0,0,.28-4c-.16-1.31-1.07-2.57-1.28-2.49s-.18,1.14-.73,2.15a6,6,0,0,0-.8,3.35A7,7,0,0,0,162.41,68.49Z"/><path id="_路径_43" data-name="&lt;路径&gt;" class="cls-2" d="M156.86,62.16c1.79,1.11,2.4.59,2.4.59a7,7,0,0,0-1-2.91,5.9,5.9,0,0,0-2.63-2.23c-1-.49-1.63-1.36-1.85-1.31s-.21,1.61.44,2.77A6.12,6.12,0,0,0,156.86,62.16Z"/><path id="_路径_44" data-name="&lt;路径&gt;" class="cls-2" d="M161.74,61a6.15,6.15,0,0,0,.92-3.94c.05-1.32-.65-2.71-.86-2.66s-.36,1.1-1.06,2a5.87,5.87,0,0,0-1.34,3.17,7.06,7.06,0,0,0,.47,3S160.65,62.8,161.74,61Z"/><path id="_路径_45" data-name="&lt;路径&gt;" class="cls-2" d="M155.42,56c1.62,1.34,2.3.91,2.3.91a7,7,0,0,0-.56-3,6,6,0,0,0-2.31-2.55c-1-.63-1.44-1.57-1.67-1.55s-.42,1.57.07,2.8A6.13,6.13,0,0,0,155.42,56Z"/><path id="_路径_46" data-name="&lt;路径&gt;" class="cls-2" d="M160.41,55.48a6.11,6.11,0,0,0,1.43-3.78c.23-1.3-.27-2.77-.5-2.75s-.5,1-1.31,1.85a5.9,5.9,0,0,0-1.75,3,7,7,0,0,0,.06,3.06S159.09,57.12,160.41,55.48Z"/><path id="_路径_47" data-name="&lt;路径&gt;" class="cls-2" d="M154.91,49.32c1.4,1.57,2.13,1.24,2.13,1.24a6.92,6.92,0,0,0-.1-3.06,6,6,0,0,0-1.9-2.88c-.86-.76-1.2-1.76-1.42-1.77s-.65,1.49-.35,2.78A6.11,6.11,0,0,0,154.91,49.32Z"/><path id="_路径_48" data-name="&lt;路径&gt;" class="cls-2" d="M157.67,50.6s.69.4,2.24-1a6.21,6.21,0,0,0,2-3.53c.42-1.25.14-2.79-.09-2.8s-.65,1-1.58,1.64a5.9,5.9,0,0,0-2.17,2.67A6.92,6.92,0,0,0,157.67,50.6Z"/><path id="_路径_49" data-name="&lt;路径&gt;" class="cls-2" d="M155.38,42.88c1.24,1.7,2,1.44,2,1.44a7,7,0,0,0,.2-3.06,5.93,5.93,0,0,0-1.62-3c-.78-.85-1-1.87-1.24-1.91s-.79,1.42-.62,2.74A6.15,6.15,0,0,0,155.38,42.88Z"/><path id="_路径_50" data-name="&lt;路径&gt;" class="cls-2" d="M158,44.42s.66.46,2.33-.8a6.15,6.15,0,0,0,2.32-3.32c.54-1.21.41-2.76.19-2.79s-.74.88-1.73,1.47a5.94,5.94,0,0,0-2.42,2.45A6.92,6.92,0,0,0,158,44.42Z"/><path id="_路径_51" data-name="&lt;路径&gt;" class="cls-2" d="M158.28,37.47a7.07,7.07,0,0,0,.8-3,6,6,0,0,0-1-3.3c-.6-1-.63-2-.84-2.11s-1.06,1.24-1.15,2.56a6.17,6.17,0,0,0,.49,4C157.49,37.57,158.28,37.47,158.28,37.47Z"/><path id="_路径_52" data-name="&lt;路径&gt;" class="cls-2" d="M164.24,34.57c.77-1.08.95-2.63.74-2.7s-.9.72-2,1.1a5.93,5.93,0,0,0-2.85,1.92,6.94,6.94,0,0,0-1.27,2.8s.55.58,2.44-.33A6.12,6.12,0,0,0,164.24,34.57Z"/><path id="_路径_53" data-name="&lt;路径&gt;" class="cls-2" d="M160.29,31.34a7,7,0,0,0,1.13-2.86,5.91,5.91,0,0,0-.6-3.39c-.48-1-.39-2.09-.59-2.19S159,24,158.8,25.31a6.15,6.15,0,0,0,0,4C159.49,31.34,160.29,31.34,160.29,31.34Z"/><path id="_路径_54" data-name="&lt;路径&gt;" class="cls-2" d="M167.58,26.53c-.2-.1-1,.61-2.1.87a5.87,5.87,0,0,0-3,1.59,7,7,0,0,0-1.58,2.63s.49.64,2.47-.05a6.17,6.17,0,0,0,3.23-2.44C167.43,28.15,167.78,26.63,167.58,26.53Z"/><path id="_路径_55" data-name="&lt;路径&gt;" class="cls-2" d="M163,25.64a7.11,7.11,0,0,0,1.45-2.71,5.94,5.94,0,0,0-.21-3.44c-.36-1.09-.14-2.12-.33-2.24s-1.31,1-1.7,2.22a6.13,6.13,0,0,0-.44,4C162.18,25.55,163,25.64,163,25.64Z"/><path id="_路径_56" data-name="&lt;路径&gt;" class="cls-2" d="M170.77,21.7c-.19-.12-1,.5-2.18.62a6,6,0,0,0-3.22,1.23A7,7,0,0,0,163.5,26s.4.69,2.46.24a6.17,6.17,0,0,0,3.48-2C170.43,23.29,171,21.82,170.77,21.7Z"/><path id="_路径_57" data-name="&lt;路径&gt;" class="cls-2" d="M165.48,20.46a7.08,7.08,0,0,0,2-2.37,6,6,0,0,0,.47-3.41c-.14-1.15.27-2.12.11-2.27s-1.47.69-2.1,1.85a6.12,6.12,0,0,0-1.21,3.86C164.72,20.22,165.48,20.46,165.48,20.46Z"/><path id="_路径_58" data-name="&lt;路径&gt;" class="cls-2" d="M165.92,20.9s.27.76,2.37.71a6.15,6.15,0,0,0,3.82-1.33c1.14-.66,1.94-2,1.78-2.16s-1.12.29-2.26.18a5.93,5.93,0,0,0-3.4.58A7,7,0,0,0,165.92,20.9Z"/><path id="_路径_59" data-name="&lt;路径&gt;" class="cls-2" d="M169.2,16.45a6.58,6.58,0,0,0,1.86-2.22,5.57,5.57,0,0,0,.48-3.22c-.12-1.08.27-2,.12-2.14s-1.4.63-2,1.73a5.81,5.81,0,0,0-1.18,3.63C168.48,16.22,169.2,16.45,169.2,16.45Z"/><path id="_路径_60" data-name="&lt;路径&gt;" class="cls-2" d="M175,14.47a5.58,5.58,0,0,0-3.22.51,6.69,6.69,0,0,0-2.2,1.89s.24.72,2.23.7a5.84,5.84,0,0,0,3.62-1.23c1.09-.61,1.86-1.87,1.71-2S176.11,14.58,175,14.47Z"/><path id="_路径_61" data-name="&lt;路径&gt;" class="cls-2" d="M176.13,9.72c-.44.14-2.9.41-3.62,2.15s-.72,2.19-.22,2.32a3,3,0,0,0,1.32-.17,4.15,4.15,0,0,0,2.6-1.71,9,9,0,0,0,1.37-2.8C177.82,8.9,177.11,9.42,176.13,9.72Z"/></g></g></g><g id="_编组_7" data-name="&lt;编组&gt;"><path id="_路径_62" data-name="&lt;路径&gt;" class="cls-1" d="M230.6,67.87l-.19-.05-3.57-1.1,0,1.1,2.75,1c.83,3.61,5,21.18,5,21.18s-14.46-4.49-18.72-4.7-5.56.45-6.42,1a5,5,0,0,0-1.72,2.35l.06,1.73-6.57,0,.06-1.76a3.64,3.64,0,0,0-1.49-2c-.86-.6-2.51-1.52-6.7-1.31s-18.48,4.55-18.48,4.55,4.08-17.6,4.92-21.2l2.54-.87.09-1.1-3.57,1.1-.19.05-5.78,23.86s14-4,15.22-4.22a36.13,36.13,0,0,1,7.36-.92c4,0,4.83,2.3,4.83,2.3L199.57,92l5-.13h4.91l-.56-3s.91-2.39,4.87-2.36a36.13,36.13,0,0,1,7.36.92c1.18.25,15.22,4.22,15.22,4.22Z"/><g id="_编组_8" data-name="&lt;编组&gt;"><path id="_路径_63" data-name="&lt;路径&gt;" class="cls-1" d="M199,60.47c-2.21-.37-6,.46-9.78,1.74-3.11,1-7.44,2.75-7.44,2.75l-4.1,21.54s7.57-2.25,13.25-3.5c5.39-1.18,7.93-.25,9.47.6A7.44,7.44,0,0,1,204,87.28V63.9C203.58,62.87,202.41,61,199,60.47Z"/><path id="_路径_64" data-name="&lt;路径&gt;" class="cls-1" d="M227.41,65.08s-4.33-1.71-7.44-2.75c-3.79-1.27-7.58-2.1-9.78-1.74-3.4.57-4.58,2.38-5,3.42V87.39a7.53,7.53,0,0,1,3.58-3.66c1.54-.85,4.08-1.78,9.47-.6,5.67,1.25,13.25,3.5,13.25,3.5Z"/><path id="_路径_65" data-name="&lt;路径&gt;" class="cls-2" d="M205,88.1l0-.13h0Z"/></g></g><path class="cls-3" d="M225.79,65.82c-16.65-7-19.06-1.86-19.09-1.81l-.23-.1a3.17,3.17,0,0,1,1.81-1.46c2.34-1,7.29-1.2,17.6,3.13Z"/><path class="cls-3" d="M225.93,66.7c-16.77-7-19.2-1.83-19.22-1.77l-.24-.1c.1-.23,2.56-5.45,19.56,1.63Z"/><path class="cls-3" d="M226.08,67.58c-16.79-6.94-19.34-1.79-19.36-1.74l-.24-.1c.1-.23,2.63-5.46,19.7,1.6Z"/><path class="cls-3" d="M226.23,68.45c-16.91-6.93-19.48-1.74-19.5-1.69l-.24-.1c.1-.23,2.7-5.48,19.84,1.56Z"/><path class="cls-3" d="M226.38,69.33c-16.93-6.89-19.62-1.7-19.64-1.65l-.24-.11c.11-.23,2.77-5.48,20,1.52Z"/><path class="cls-3" d="M226.53,70.21c-17-6.87-19.76-1.67-19.79-1.61l-.23-.12c.11-.22,2.84-5.49,20.12,1.49Z"/><path class="cls-3" d="M226.68,71.09c-17.12-6.87-19.9-1.63-19.93-1.58l-.23-.11c.11-.23,2.91-5.51,20.26,1.45Z"/><path class="cls-3" d="M226.83,72c-17.15-6.83-20-1.6-20.07-1.54l-.23-.12c.11-.23,3-5.52,20.4,1.42Z"/><path class="cls-3" d="M227,72.85c-17.22-6.81-20.18-1.56-20.21-1.51l-.23-.11c.12-.23,3.05-5.54,20.54,1.38Z"/><path class="cls-3" d="M227.13,73.73c-17.29-6.79-20.32-1.52-20.35-1.47l-.23-.12c.12-.23,3.12-5.55,20.67,1.35Z"/><path class="cls-3" d="M227.28,74.61c-17.36-6.77-20.47-1.49-20.49-1.43l-.23-.12c.12-.23,3.19-5.56,20.81,1.3Z"/><path class="cls-3" d="M227.43,75.48C210,68.74,206.82,74,206.79,74.09l-.22-.12c.12-.23,3.26-5.57,21,1.27Z"/><path class="cls-3" d="M227.58,76.36C210,69.62,206.83,75,206.8,75l-.22-.12c.12-.24,3.33-5.59,21.09,1.23Z"/><path class="cls-3" d="M227.73,77.24c-17.62-6.72-20.89-1.37-20.92-1.31l-.22-.13c.13-.23,3.4-5.6,21.23,1.2Z"/><path class="cls-3" d="M227.88,78.12c-17.7-6.7-21-1.33-21.06-1.28l-.23-.12c.14-.24,3.48-5.62,21.38,1.16Z"/><path class="cls-3" d="M228,79c-17.77-6.68-21.17-1.29-21.2-1.24l-.23-.13c.14-.23,3.55-5.62,21.52,1.13Z"/><path class="cls-3" d="M228.18,79.88c-17.8-6.64-21.31-1.26-21.35-1.2l-.22-.14c.14-.23,3.62-5.63,21.66,1.1Z"/><path class="cls-3" d="M228.33,80.76c-17.91-6.63-21.45-1.22-21.49-1.17l-.22-.13c.14-.23,3.69-5.65,21.8,1.05Z"/><path class="cls-3" d="M228.48,81.63c-18-6.6-21.59-1.18-21.63-1.12l-.22-.14c.15-.23,3.76-5.66,21.93,1Z"/><path class="cls-3" d="M228.62,82.51c-18-6.58-21.73-1.14-21.76-1.08l-.22-.14c.15-.24,3.83-5.68,22.07,1Z"/><path class="cls-3" d="M228.77,83.39c-18.12-6.56-21.87-1.1-21.9-1l-.22-.14c.15-.23,3.9-5.69,22.21,1Z"/><path class="cls-3" d="M228.92,84.27c-18.15-6.53-22-1.07-22-1l-.22-.14c.15-.24,4-5.7,22.35.91Z"/><path class="cls-3" d="M183.5,65.82l-.1-.24c10.31-4.33,15.27-4.09,17.61-3.13a3.26,3.26,0,0,1,1.81,1.46l-.24.1C202.56,64,200.14,58.84,183.5,65.82Z"/><path class="cls-3" d="M183.35,66.7l-.1-.24c17-7.08,19.46-1.86,19.56-1.63l-.24.1C202.55,64.88,200.07,59.74,183.35,66.7Z"/><path class="cls-3" d="M183.2,67.58l-.1-.24c17.07-7.06,19.6-1.83,19.7-1.6l-.24.1S200,60.64,183.2,67.58Z"/><path class="cls-3" d="M183.05,68.45l-.1-.23c17.14-7,19.74-1.79,19.84-1.56l-.24.1C202.53,66.71,199.91,61.54,183.05,68.45Z"/><path class="cls-3" d="M182.9,69.33l-.1-.24c17.21-7,19.88-1.75,20-1.52l-.23.11C202.52,67.63,199.83,62.44,182.9,69.33Z"/><path class="cls-3" d="M182.75,70.21l-.1-.24c17.28-7,20-1.71,20.12-1.49l-.23.12C202.51,68.54,199.75,63.34,182.75,70.21Z"/><path class="cls-3" d="M182.6,71.09l-.1-.24c17.35-7,20.15-1.68,20.26-1.45l-.23.11C202.5,69.46,199.68,64.24,182.6,71.09Z"/><path class="cls-3" d="M182.45,72l-.09-.24c17.41-6.94,20.28-1.65,20.39-1.42l-.23.12C202.49,70.37,199.6,65.14,182.45,72Z"/><path class="cls-3" d="M182.3,72.85l-.09-.24c17.48-6.92,20.42-1.61,20.53-1.38l-.23.11S199.52,66,182.3,72.85Z"/><path class="cls-3" d="M182.15,73.73l-.09-.24c17.55-6.89,20.56-1.58,20.67-1.35l-.22.12C202.48,72.21,199.44,66.94,182.15,73.73Z"/><path class="cls-3" d="M182,74.61l-.09-.25c17.62-6.86,20.69-1.53,20.81-1.3l-.22.12C202.47,73.12,199.37,67.84,182,74.61Z"/><path class="cls-3" d="M181.85,75.48l-.09-.24c17.69-6.84,20.83-1.5,21-1.27l-.23.12S199.29,68.74,181.85,75.48Z"/><path class="cls-3" d="M181.7,76.36l-.09-.24c17.76-6.82,21-1.46,21.1-1.23l-.23.12C202.45,75,199.21,69.64,181.7,76.36Z"/><path class="cls-3" d="M181.55,77.24l-.09-.24c17.83-6.8,21.11-1.43,21.24-1.2l-.23.13C202.44,75.87,199.13,70.54,181.55,77.24Z"/><path class="cls-3" d="M181.4,78.12l-.09-.24c17.9-6.78,21.24-1.4,21.38-1.16l-.23.12S199.06,71.44,181.4,78.12Z"/><path class="cls-3" d="M181.26,79l-.1-.24c18-6.75,21.38-1.36,21.52-1.13l-.22.13C202.42,77.71,199,72.34,181.26,79Z"/><path class="cls-3" d="M181.11,79.88l-.09-.24c18-6.73,21.51-1.33,21.65-1.1l-.22.14C202.41,78.62,198.9,73.24,181.11,79.88Z"/><path class="cls-3" d="M181,80.76l-.09-.25c18.1-6.7,21.65-1.28,21.79-1.05l-.22.13S198.82,74.14,181,80.76Z"/><path class="cls-3" d="M180.81,81.63l-.09-.24c18.17-6.68,21.79-1.25,21.93-1l-.22.14C202.4,80.45,198.74,75,180.81,81.63Z"/><path class="cls-3" d="M180.66,82.51l-.09-.24c18.24-6.66,21.92-1.22,22.07-1l-.22.14C202.39,81.37,198.66,75.94,180.66,82.51Z"/><path class="cls-3" d="M180.51,83.39l-.09-.24c18.31-6.63,22.06-1.18,22.21-1l-.21.14S198.59,76.84,180.51,83.39Z"/><path class="cls-3" d="M180.36,84.27l-.09-.24c18.38-6.61,22.2-1.15,22.35-.91l-.21.14C202.37,83.2,198.51,77.74,180.36,84.27Z"/><path class="cls-1" d="M138.43,115.57v-3h7.79v7.14a9.72,9.72,0,0,1-3.29,1.93,12,12,0,0,1-4.37.84,9.77,9.77,0,0,1-4.9-1.18,7.48,7.48,0,0,1-3.14-3.37,10.89,10.89,0,0,1-1.05-4.77,10.31,10.31,0,0,1,1.17-5,7.88,7.88,0,0,1,3.44-3.34,9.26,9.26,0,0,1,4.28-.89,8.52,8.52,0,0,1,5.22,1.4,6.31,6.31,0,0,1,2.41,3.87l-3.59.67a3.79,3.79,0,0,0-1.43-2.09,4.27,4.27,0,0,0-2.61-.76,4.9,4.9,0,0,0-3.76,1.5,6.31,6.31,0,0,0-1.4,4.46,7.06,7.06,0,0,0,1.41,4.79,4.76,4.76,0,0,0,3.72,1.59,6.17,6.17,0,0,0,2.28-.45,7.48,7.48,0,0,0,2-1.08v-2.27Z"/><path class="cls-1" d="M148.82,113.31a11.46,11.46,0,0,1,.82-4.59,8.37,8.37,0,0,1,1.67-2.46,7.06,7.06,0,0,1,2.31-1.61,9.75,9.75,0,0,1,3.87-.71,8.4,8.4,0,0,1,6.33,2.46,11,11,0,0,1,0,13.61,9.42,9.42,0,0,1-12.66,0A9.24,9.24,0,0,1,148.82,113.31Zm3.73-.12A6.69,6.69,0,0,0,154,117.8a4.82,4.82,0,0,0,7.11,0,8.53,8.53,0,0,0,0-9.27,5,5,0,0,0-7.19,0A6.76,6.76,0,0,0,152.55,113.19Z"/><path class="cls-1" d="M168.11,116.33l3.52-.35a4.33,4.33,0,0,0,1.28,2.61,3.94,3.94,0,0,0,2.62.83,4.05,4.05,0,0,0,2.64-.74,2.19,2.19,0,0,0,.88-1.73,1.63,1.63,0,0,0-.37-1.08,3,3,0,0,0-1.3-.78c-.43-.14-1.39-.4-2.9-.78a9.86,9.86,0,0,1-4.08-1.77,4.65,4.65,0,0,1-1.65-3.6,4.56,4.56,0,0,1,.78-2.56,4.85,4.85,0,0,1,2.24-1.82,9,9,0,0,1,3.52-.62,7.55,7.55,0,0,1,5.08,1.48,5.24,5.24,0,0,1,1.79,3.94l-3.62.16a3.07,3.07,0,0,0-1-2,3.6,3.6,0,0,0-2.29-.61,4.11,4.11,0,0,0-2.46.65,1.3,1.3,0,0,0-.58,1.11,1.38,1.38,0,0,0,.54,1.09,9.56,9.56,0,0,0,3.32,1.2,16.85,16.85,0,0,1,3.9,1.29,4.91,4.91,0,0,1,2,1.82,5.6,5.6,0,0,1-.14,5.73,5.06,5.06,0,0,1-2.41,2,10.13,10.13,0,0,1-3.9.65,7.73,7.73,0,0,1-5.22-1.57A6.79,6.79,0,0,1,168.11,116.33Z"/><path class="cls-1" d="M185.71,122.16V104.24h5.81a21.74,21.74,0,0,1,4.3.27,4.71,4.71,0,0,1,2.57,1.76,5.51,5.51,0,0,1,1,3.49,5.85,5.85,0,0,1-.6,2.77,4.78,4.78,0,0,1-1.52,1.76,5,5,0,0,1-1.87.85,20.7,20.7,0,0,1-3.75.26h-2.36v6.76Zm3.62-14.89v5.09h2a9.64,9.64,0,0,0,2.86-.28,2.37,2.37,0,0,0,1.13-.88,2.45,2.45,0,0,0,.41-1.4,2.29,2.29,0,0,0-.58-1.61,2.45,2.45,0,0,0-1.45-.79,17.2,17.2,0,0,0-2.6-.13Z"/><path class="cls-1" d="M202.4,122.16V104.24h13.28v3H206v4h9v3h-9v4.88h10v3Z"/><path class="cls-1" d="M219.19,122.16V104.39h3.62v14.75h9v3Z"/><path class="cls-1" d="M240.15,113.31a11.47,11.47,0,0,1,.81-4.59,8.37,8.37,0,0,1,1.67-2.46,7.06,7.06,0,0,1,2.31-1.61,9.75,9.75,0,0,1,3.87-.71,8.38,8.38,0,0,1,6.33,2.46,11,11,0,0,1,0,13.61,8.31,8.31,0,0,1-6.3,2.45A8.42,8.42,0,0,1,242.5,120,9.24,9.24,0,0,1,240.15,113.31Zm3.72-.12a6.69,6.69,0,0,0,1.41,4.61,4.82,4.82,0,0,0,7.11,0,8.53,8.53,0,0,0,0-9.27,5,5,0,0,0-7.19,0A6.81,6.81,0,0,0,243.87,113.19Z"/><path class="cls-1" d="M260.36,122.16V104.24h12.28v3H264v4.25h7.48v3H264v7.62Z"/><path class="cls-1" d="M5.32,149.68V134.8H0v-3H14.23v3H8.93v14.88Z"/><path class="cls-1" d="M16.58,149.68V131.77H20.2v7h7.08v-7H30.9v17.91H27.28v-7.83H20.2v7.83Z"/><path class="cls-1" d="M34.64,149.68V131.77H47.92v3H38.26v4h9v3h-9v4.87h10v3Z"/><path class="cls-1" d="M58.27,131.77h6.61a12.84,12.84,0,0,1,3.41.34,6,6,0,0,1,2.7,1.65,7.83,7.83,0,0,1,1.71,2.9,13.32,13.32,0,0,1,.58,4.24,11.7,11.7,0,0,1-.55,3.81,7.77,7.77,0,0,1-1.91,3.16,6.41,6.41,0,0,1-2.54,1.43,10.74,10.74,0,0,1-3.21.38h-6.8Zm3.61,3v11.86h2.71a9.45,9.45,0,0,0,2.18-.17,3.21,3.21,0,0,0,1.46-.74,3.74,3.74,0,0,0,1-1.73,11.47,11.47,0,0,0,.37-3.28,10.48,10.48,0,0,0-.37-3.19,4.11,4.11,0,0,0-1-1.74,3.44,3.44,0,0,0-1.67-.84,16.84,16.84,0,0,0-3-.17Z"/><path class="cls-1" d="M76.35,149.68V131.77H89.63v3H80v4h9v3H80v4.87H90v3Z"/><path class="cls-1" d="M92.13,143.85l3.51-.34a4.36,4.36,0,0,0,1.29,2.6,3.89,3.89,0,0,0,2.62.84,4.05,4.05,0,0,0,2.64-.74,2.21,2.21,0,0,0,.88-1.73,1.59,1.59,0,0,0-.37-1.08,3,3,0,0,0-1.3-.78c-.43-.15-1.39-.41-2.9-.78a9.8,9.8,0,0,1-4.08-1.77,4.67,4.67,0,0,1-1.65-3.61,4.61,4.61,0,0,1,.78-2.56,4.86,4.86,0,0,1,2.23-1.81,8.92,8.92,0,0,1,3.53-.62,7.6,7.6,0,0,1,5.08,1.47,5.26,5.26,0,0,1,1.79,3.95l-3.62.16a3.12,3.12,0,0,0-1-2,3.66,3.66,0,0,0-2.29-.6,4.16,4.16,0,0,0-2.47.64,1.32,1.32,0,0,0-.57,1.12,1.36,1.36,0,0,0,.54,1.08,9.16,9.16,0,0,0,3.32,1.2,17.87,17.87,0,0,1,3.9,1.29,5,5,0,0,1,2,1.82,5.61,5.61,0,0,1-.14,5.74,5.15,5.15,0,0,1-2.42,2,10.23,10.23,0,0,1-3.89.65,7.73,7.73,0,0,1-5.22-1.57A6.82,6.82,0,0,1,92.13,143.85Z"/><path class="cls-1" d="M121.19,143.09l3.51,1.12a7.85,7.85,0,0,1-2.68,4.35,7.65,7.65,0,0,1-4.76,1.43,7.73,7.73,0,0,1-5.87-2.44,9.32,9.32,0,0,1-2.29-6.66c0-3,.76-5.3,2.31-6.95a7.89,7.89,0,0,1,6.07-2.47,7.43,7.43,0,0,1,5.34,1.94,7.07,7.07,0,0,1,1.83,3.3l-3.58.85a3.7,3.7,0,0,0-3.78-3,4.07,4.07,0,0,0-3.23,1.43c-.82.95-1.24,2.49-1.24,4.63s.41,3.87,1.22,4.83a4,4,0,0,0,3.18,1.45,3.63,3.63,0,0,0,2.48-.92A5.32,5.32,0,0,0,121.19,143.09Z"/><path class="cls-1" d="M127.8,149.68V131.77h13.28v3h-9.66v4h9v3h-9v4.87h10v3Z"/><path class="cls-1" d="M144.53,149.68V131.77h3.52l7.33,12v-12h3.36v17.91h-3.63L147.89,138v11.68Z"/><path class="cls-1" d="M166.6,149.68V134.8h-5.32v-3h14.24v3h-5.31v14.88Z"/><path class="cls-1" d="M184.07,140.84a11.34,11.34,0,0,1,.82-4.6,8.29,8.29,0,0,1,1.66-2.45,7,7,0,0,1,2.32-1.62,9.88,9.88,0,0,1,3.86-.7,8.38,8.38,0,0,1,6.33,2.45,11,11,0,0,1,0,13.62,8.34,8.34,0,0,1-6.3,2.45,8.43,8.43,0,0,1-6.35-2.44A9.2,9.2,0,0,1,184.07,140.84Zm3.72-.13a6.72,6.72,0,0,0,1.41,4.62,4.61,4.61,0,0,0,3.57,1.57,4.55,4.55,0,0,0,3.55-1.56,6.87,6.87,0,0,0,1.38-4.67,6.74,6.74,0,0,0-1.35-4.6,4.55,4.55,0,0,0-3.58-1.51,4.61,4.61,0,0,0-3.61,1.53A6.76,6.76,0,0,0,187.79,140.71Z"/><path class="cls-1" d="M204.29,149.68V131.77h12.28v3H207.9V139h7.48v3H207.9v7.61Z"/><path class="cls-1" d="M230.54,149.68V134.8h-5.32v-3h14.23v3h-5.3v14.88Z"/><path class="cls-1" d="M241.8,149.68V131.77h3.62v7h7.08v-7h3.62v17.91H252.5v-7.83h-7.08v7.83Z"/><path class="cls-1" d="M259.86,149.68V131.77h13.28v3h-9.66v4h9v3h-9v4.87h10v3Z"/><path class="cls-1" d="M283.55,149.68V131.77h3.62v7.95l7.3-7.95h4.86l-6.74,7,7.11,10.93H295l-4.92-8.4-2.93,3v5.41Z"/><path class="cls-1" d="M301.46,149.68V131.77h3.62v17.91Z"/><path class="cls-1" d="M308.56,149.68V131.77h3.52l7.33,12v-12h3.36v17.91h-3.63L311.92,138v11.68Z"/><path class="cls-1" d="M334.93,143.09v-3h7.79v7.14a9.88,9.88,0,0,1-3.29,1.93,12,12,0,0,1-4.37.84,9.9,9.9,0,0,1-4.9-1.18,7.54,7.54,0,0,1-3.14-3.37,11,11,0,0,1-1-4.77,10.35,10.35,0,0,1,1.17-5,7.86,7.86,0,0,1,3.44-3.33,9.14,9.14,0,0,1,4.28-.89,8.59,8.59,0,0,1,5.22,1.39,6.34,6.34,0,0,1,2.41,3.87l-3.59.67a3.77,3.77,0,0,0-1.43-2.08,4.27,4.27,0,0,0-2.61-.76,4.9,4.9,0,0,0-3.76,1.5,6.3,6.3,0,0,0-1.4,4.46,7,7,0,0,0,1.41,4.78,4.77,4.77,0,0,0,3.72,1.6,6.17,6.17,0,0,0,2.28-.45,8.11,8.11,0,0,0,2-1.08v-2.28Z"/><path class="cls-1" d="M346.05,131.77h6.61a12.9,12.9,0,0,1,3.41.34,6,6,0,0,1,2.7,1.65,7.83,7.83,0,0,1,1.71,2.9,13.32,13.32,0,0,1,.58,4.24,11.7,11.7,0,0,1-.55,3.81,7.77,7.77,0,0,1-1.91,3.16,6.38,6.38,0,0,1-2.55,1.43,10.62,10.62,0,0,1-3.2.38h-6.8Zm3.61,3v11.86h2.7a9.55,9.55,0,0,0,2.19-.17,3.21,3.21,0,0,0,1.46-.74A3.83,3.83,0,0,0,357,144a11.89,11.89,0,0,0,.36-3.28,10.86,10.86,0,0,0-.36-3.19,4.22,4.22,0,0,0-1-1.74,3.53,3.53,0,0,0-1.67-.84,16.92,16.92,0,0,0-3-.17Z"/><path class="cls-1" d="M363.4,140.84a11.52,11.52,0,0,1,.81-4.6,8.52,8.52,0,0,1,1.67-2.45,7,7,0,0,1,2.32-1.62,9.85,9.85,0,0,1,3.86-.7,8.38,8.38,0,0,1,6.33,2.45,11,11,0,0,1,0,13.62,8.34,8.34,0,0,1-6.3,2.45,8.43,8.43,0,0,1-6.35-2.44A9.2,9.2,0,0,1,363.4,140.84Zm3.72-.13a6.72,6.72,0,0,0,1.41,4.62,4.61,4.61,0,0,0,3.57,1.57,4.55,4.55,0,0,0,3.55-1.56,6.87,6.87,0,0,0,1.38-4.67,6.74,6.74,0,0,0-1.35-4.6,4.55,4.55,0,0,0-3.58-1.51,4.61,4.61,0,0,0-3.61,1.53A6.76,6.76,0,0,0,367.12,140.71Z"/><path class="cls-1" d="M383.54,149.68V131.77H389L392.21,144l3.21-12.22h5.43v17.91h-3.36v-14.1l-3.56,14.1h-3.48l-3.55-14.1v14.1Z"/></svg>